<svg width="30" height="30" viewBox="0 0 30 30" fill="none" xmlns="http://www.w3.org/2000/svg">
<g id="Twitter">
<circle id="Ellipse 1" cx="15" cy="15" r="15" fill="#63C7FF"/>
<path id="Shape" d="M21.625 11.2308C21.5 16.8404 17.875 20.7428 12.375 20.9867C10.125 21.1086 8.5 20.3769 7 19.5233C8.625 19.7672 10.75 19.1575 11.875 18.1819C10.25 18.0599 9.24999 17.2063 8.74999 15.8648C9.24999 15.9868 9.74999 15.8648 10.125 15.8648C8.625 15.3771 7.625 14.5234 7.5 12.5723C7.875 12.8161 8.375 12.9381 8.87499 12.9381C7.75 12.3284 7 10.0113 7.875 8.54797C9.49999 10.2552 11.5 11.7186 14.75 11.9625C13.875 8.54797 18.625 6.71876 20.5 9.03577C21.375 8.91382 22 8.54797 22.625 8.30408C22.375 9.15771 21.875 9.64551 21.25 10.1333C21.875 10.0113 22.5 9.8894 23 9.64551C22.875 10.2552 22.25 10.743 21.625 11.2308Z" fill="white"/>
</g>
</svg>
